<?xml version="1.0" encoding="utf-8"?>
<!-- Generator: Adobe Illustrator 16.0.0, SVG Export Plug-In . SVG Version: 6.00 Build 0)  -->
<!DOCTYPE svg PUBLIC "-//W3C//DTD SVG 1.1//EN" "http://www.w3.org/Graphics/SVG/1.1/DTD/svg11.dtd">
<svg version="1.1" id="Calque_1" xmlns="http://www.w3.org/2000/svg" xmlns:xlink="http://www.w3.org/1999/xlink" x="0px" y="0px"
	 width="318px" height="130px" viewBox="0 -67.182 318 130" enable-background="new 0 -67.182 318 130" xml:space="preserve">
<path fill="#003056" d="M68.375-9.1v5.841H48.809v13.557h-6.967V-6.84c0.045-4.915,0.517-8.155,1.414-9.71
	c1.107-2.146,2.721-3.677,4.845-4.59c2.124-0.913,5.097-1.368,8.929-1.368h11.346v5.841H57.918
	c-3.253,0.047-5.344,0.311-6.273,0.793c-1.844,0.753-2.789,2.426-2.838,5.023v1.753L68.375-9.1L68.375-9.1z"/>
<polygon fill="#003056" points="80.683,-22.509 88.854,3.087 97.458,-22.509 107.649,-22.509 107.649,10.3 100.993,10.3 
	100.993,-14.334 92.412,10.3 85.227,10.3 77.125,-14.334 77.125,10.3 70.469,10.3 70.469,-22.509 "/>
<path fill="#003056" d="M136.35,4.458v5.84h-11.438c-2.183,0-3.85-0.113-4.999-0.338c-4.024-0.782-6.884-3.033-8.582-6.751
	c-1.12-2.485-1.682-5.561-1.682-9.23c0-4.405,0.857-7.994,2.572-10.767c1.233-1.988,2.887-3.437,4.963-4.35
	c2.073-0.913,4.763-1.368,8.063-1.368h11.103v5.839h-10.312c-3.122,0-5.413,0.835-6.872,2.501c-1.204,1.379-1.804,3.877-1.804,7.497
	c0,4.84,0.937,8.02,2.812,9.542c1.314,1.06,3.36,1.586,6.131,1.586H136.35L136.35,4.458z"/>
<path fill="#003056" d="M143.749-22.508h13.914c3.478,0,6.171,0.345,8.075,1.034c3.508,1.265,5.849,3.604,7.021,7.017
	c0.894,2.613,1.346,5.418,1.346,8.414c0,2.964-0.427,5.762-1.275,8.388c-0.847,2.695-2.268,4.673-4.253,5.937
	c-1.25,0.801-2.615,1.34-4.1,1.608c-1.481,0.272-3.753,0.409-6.812,0.409h-13.917V-22.508L143.749-22.508z M150.717-16.668V4.458
	h6.946c3.044,0,5.161-0.679,6.345-2.042c0.721-0.831,1.302-2.024,1.746-3.57c0.438-1.546,0.659-3.194,0.659-4.938
	c0-1.921-0.26-3.694-0.78-5.31c-0.522-1.622-1.213-2.82-2.082-3.608c-1.247-1.104-3.212-1.659-5.888-1.659L150.717-16.668
	L150.717-16.668z"/>
<path fill="#003056" d="M175.956-22.509h6.587v6.395h-6.587V-22.509z M175.956-13.665h6.587v23.963h-6.587V-13.665z"/>
<path fill="#003056" d="M209.078-13.665v23.793c0,1.35-0.148,2.549-0.455,3.596c-0.306,1.048-0.762,1.942-1.371,2.677
	c-0.736,0.912-1.641,1.546-2.715,1.899c-1.074,0.352-2.629,0.529-4.663,0.529h-13.148v-5.118h12.261
	c1.442,0,2.385-0.221,2.838-0.664c0.446-0.438,0.67-1.356,0.67-2.753h-6.056c-1.939,0-3.537-0.201-4.797-0.61
	c-1.257-0.409-2.397-1.096-3.424-2.052c-2.405-2.248-3.604-5.354-3.604-9.326c0-4.536,1.458-7.845,4.377-9.925
	c1.054-0.741,2.168-1.263,3.338-1.578c1.169-0.312,2.65-0.468,4.446-0.468H209.078L209.078-13.665z M202.494-8.545h-5.457
	c-3.797,0-5.697,2.292-5.697,6.875c0,2.242,0.514,3.946,1.54,5.107c1.026,1.165,2.526,1.744,4.498,1.744h5.116V-8.545L202.494-8.545
	z"/>
<path fill="#003056" d="M212.616-22.509h6.585v6.395h-6.585V-22.509z M212.616-13.665h6.585v23.963h-6.585V-13.665z"/>
<path fill="#003056" d="M224.49-13.665v-8.844h6.586v8.844h6.105v5.118h-6.105v8.703c0,2.035,0.184,3.32,0.55,3.846
	c0.56,0.785,1.548,1.177,2.957,1.177h2.597v5.119h-4.782c-2.854,0-4.885-0.69-6.094-2.067c-1.21-1.375-1.813-3.684-1.813-6.922
	v-9.854h-4.182v-5.119H224.49L224.49-13.665z"/>
<path fill="#003056" d="M255.26-4.266c0-1.681-0.341-2.817-1.022-3.4c-0.682-0.587-2.017-0.881-4-0.881h-11.153v-5.118h11.153
	c1.983,0,3.36,0.037,4.118,0.109c0.763,0.071,1.527,0.229,2.298,0.467c3.639,1.379,5.366,4.672,5.19,9.879v13.507h-13.892
	c-2.482,0-4.203-0.073-5.157-0.217c-0.95-0.143-1.789-0.457-2.51-0.938c-1.955-1.313-2.936-3.292-2.936-5.934
	c0-1.619,0.391-3.059,1.17-4.316c0.775-1.256,1.798-2.11,3.063-2.56c1.121-0.4,2.987-0.601,5.603-0.601L255.26-4.266L255.26-4.266z
	 M255.26,0.854h-7.621l-1.106-0.024c-0.753,0-1.349,0.201-1.79,0.602c-0.438,0.4-0.659,0.936-0.659,1.609
	c0,0.787,0.267,1.338,0.806,1.659c0.538,0.319,1.453,0.48,2.75,0.48h7.621V0.854z"/>
<rect x="265.043" y="-22.509" fill="#003056" width="6.586" height="32.807"/>
<path fill="#003056" d="M281.961,4.532c0,1.667-1.308,2.974-3.012,2.974c-1.688,0-3.035-1.307-3.035-2.974
	c0-1.634,1.35-2.941,3.035-2.941C280.653,1.59,281.961,2.897,281.961,4.532 M276.671,4.532c0,1.306,0.964,2.346,2.295,2.346
	c1.293,0,2.241-1.04,2.241-2.33c0-1.31-0.949-2.368-2.258-2.368C277.635,2.18,276.671,3.238,276.671,4.532 M278.483,6.073h-0.681
	v-2.94c0.266-0.054,0.644-0.091,1.129-0.091c0.554,0,0.806,0.091,1.022,0.217c0.162,0.125,0.286,0.357,0.286,0.644
	c0,0.326-0.251,0.575-0.607,0.684v0.034c0.285,0.109,0.448,0.323,0.54,0.718c0.087,0.45,0.14,0.626,0.215,0.735h-0.735
	c-0.092-0.109-0.146-0.377-0.234-0.719c-0.054-0.32-0.234-0.467-0.607-0.467h-0.324v1.187H278.483z M278.5,4.406h0.321
	c0.376,0,0.679-0.126,0.679-0.433c0-0.267-0.195-0.446-0.623-0.446c-0.181,0-0.306,0.019-0.377,0.035V4.406z"/>
<rect x="63.057" y="17.011" fill="#43B649" width="2.65" height="12.472"/>
<path fill="#43B649" d="M67.087,20.376h4.835c0.718,0,1.269,0.05,1.652,0.155c0.385,0.103,0.727,0.296,1.034,0.574
	c0.637,0.582,0.96,1.507,0.96,2.771v5.61h-2.502v-5.892c0-0.452-0.102-0.777-0.304-0.974c-0.202-0.201-0.529-0.299-0.986-0.299
	h-2.183v7.164H67.09v-9.11L67.087,20.376L67.087,20.376z"/>
<path fill="#43B649" d="M77.449,20.376v-3.363h2.504v3.363h2.32v1.946h-2.32v3.31c0,0.775,0.068,1.258,0.21,1.462
	c0.211,0.297,0.588,0.447,1.125,0.447h0.986v1.949h-1.819c-1.087,0-1.857-0.263-2.318-0.787c-0.458-0.525-0.689-1.4-0.689-2.631
	v-3.749h-1.588V20.38h1.59V20.376L77.449,20.376z"/>
<path fill="#43B649" d="M90.118,23.949v1.945h-5.283c0.048,0.598,0.242,1.023,0.579,1.273c0.339,0.246,0.883,0.37,1.64,0.37h3.06
	v1.947h-3.333c-0.726,0-1.316-0.063-1.771-0.189c-0.452-0.129-0.885-0.348-1.293-0.661c-1.102-0.85-1.652-2.128-1.652-3.817
	c0-1.111,0.291-2.072,0.877-2.886c0.402-0.561,0.883-0.963,1.443-1.2c0.562-0.237,1.3-0.355,2.213-0.355h3.517v1.943h-3.333
	c-0.683,0-1.162,0.117-1.439,0.349c-0.278,0.232-0.447,0.657-0.508,1.281H90.118L90.118,23.949z M89.717,16.853l-2.323,2.446h-1.608
	l1.716-2.446H89.717z"/>
<path fill="#43B649" d="M99.797,20.376v9.046c0,0.512-0.06,0.965-0.175,1.365c-0.116,0.402-0.288,0.742-0.521,1.021
	c-0.279,0.348-0.624,0.588-1.034,0.721c-0.409,0.135-0.999,0.202-1.772,0.202h-4.999v-1.946h4.66c0.548,0,0.907-0.082,1.077-0.254
	c0.173-0.166,0.258-0.512,0.258-1.043h-2.305c-0.738,0-1.344-0.078-1.823-0.234c-0.479-0.154-0.913-0.414-1.304-0.782
	c-0.913-0.852-1.368-2.035-1.368-3.545c0-1.724,0.553-2.982,1.662-3.776c0.404-0.277,0.827-0.481,1.271-0.593
	c0.445-0.124,1.009-0.183,1.694-0.183L99.797,20.376L99.797,20.376z M97.293,22.321h-2.075c-1.443,0-2.165,0.871-2.165,2.612
	c0,0.855,0.193,1.505,0.584,1.942c0.389,0.444,0.961,0.662,1.708,0.662h1.948V22.321z"/>
<path fill="#43B649" d="M101.114,20.376h3.707c0.756,0,1.343,0.05,1.761,0.155c0.417,0.103,0.768,0.287,1.045,0.538
	c0.274,0.251,0.465,0.564,0.576,0.933c0.107,0.375,0.162,0.906,0.162,1.599v0.888h-2.403v-0.49c0-0.649-0.114-1.085-0.342-1.323
	c-0.23-0.233-0.657-0.352-1.284-0.352h-0.723v7.167h-2.502L101.114,20.376L101.114,20.376z"/>
<path fill="#43B649" d="M114.803,23.949c0-0.64-0.13-1.07-0.389-1.293c-0.258-0.222-0.765-0.335-1.521-0.335h-4.239v-1.943h4.239
	c0.754,0,1.276,0.012,1.564,0.039c0.293,0.025,0.585,0.087,0.877,0.178c1.382,0.526,2.041,1.776,1.972,3.759v5.137h-5.28
	c-0.945,0-1.598-0.03-1.961-0.085c-0.363-0.056-0.682-0.171-0.956-0.355c-0.746-0.499-1.115-1.254-1.115-2.26
	c0-0.612,0.148-1.16,0.443-1.638c0.295-0.479,0.684-0.802,1.165-0.974c0.428-0.151,1.137-0.228,2.127-0.228L114.803,23.949
	L114.803,23.949z M114.803,25.894h-2.897l-0.42-0.007c-0.286,0-0.514,0.075-0.681,0.228c-0.167,0.149-0.25,0.354-0.25,0.611
	c0,0.298,0.103,0.51,0.306,0.627c0.203,0.126,0.554,0.184,1.046,0.184h2.896V25.894L114.803,25.894z"/>
<path fill="#43B649" d="M119.182,20.376v-3.363h2.502v3.363h2.323v1.946h-2.323v3.31c0,0.775,0.07,1.258,0.212,1.462
	c0.213,0.297,0.586,0.447,1.124,0.447h0.987v1.949h-1.817c-1.085,0-1.856-0.263-2.316-0.787c-0.46-0.525-0.689-1.4-0.689-2.631
	v-3.749h-1.591V20.38h1.591L119.182,20.376L119.182,20.376z"/>
<path fill="#43B649" d="M124.611,17.011h2.503v2.433h-2.503V17.011z M124.611,20.376h2.503v9.112h-2.503V20.376z"/>
<path fill="#43B649" d="M132.662,20.239c1.682,0,2.926,0.487,3.729,1.462c0.737,0.888,1.106,2.007,1.106,3.344
	c0,1.426-0.463,2.562-1.387,3.408c-0.848,0.781-2.007,1.171-3.482,1.171c-1.522,0-2.716-0.435-3.583-1.309
	c-0.79-0.798-1.187-1.947-1.187-3.443c0-1.28,0.379-2.345,1.144-3.19C129.846,20.739,131.068,20.259,132.662,20.239 M132.682,22.156
	c-1.509,0-2.26,0.938-2.26,2.805c0,0.763,0.123,1.342,0.366,1.737c0.406,0.667,1.044,1.006,1.911,1.006
	c1.486,0,2.231-0.932,2.231-2.787C134.932,23.095,134.182,22.176,132.682,22.156"/>
<path fill="#43B649" d="M138.238,20.376h4.832c0.721,0,1.272,0.05,1.653,0.155c0.384,0.103,0.729,0.296,1.034,0.574
	c0.639,0.582,0.959,1.507,0.959,2.771v5.61h-2.502v-5.892c0-0.452-0.102-0.777-0.302-0.974c-0.2-0.201-0.529-0.299-0.985-0.299
	h-2.187v7.164h-2.501L138.238,20.376L138.238,20.376z"/>
</svg>
